<svg width="77" height="15" viewBox="0 0 77 15" fill="none" xmlns="http://www.w3.org/2000/svg">
<path d="M8.96875 10.6602H3.60742L2.40332 14H0.663086L5.5498 1.20312H7.02637L11.9219 14H10.1904L8.96875 10.6602ZM4.11719 9.27148H8.46777L6.28809 3.28613L4.11719 9.27148ZM12.9941 9.16602C12.9941 7.70703 13.3398 6.53516 14.0312 5.65039C14.7227 4.75977 15.6279 4.31445 16.7471 4.31445C17.8604 4.31445 18.7422 4.69531 19.3926 5.45703V0.5H21.0186V14H19.5244L19.4453 12.9805C18.7949 13.7773 17.8896 14.1758 16.7295 14.1758C15.6279 14.1758 14.7285 13.7246 14.0312 12.8223C13.3398 11.9199 12.9941 10.7422 12.9941 9.28906V9.16602ZM14.6201 9.35059C14.6201 10.4287 14.8428 11.2725 15.2881 11.8818C15.7334 12.4912 16.3486 12.7959 17.1338 12.7959C18.165 12.7959 18.918 12.333 19.3926 11.4072V7.03906C18.9062 6.14258 18.1592 5.69434 17.1514 5.69434C16.3545 5.69434 15.7334 6.00195 15.2881 6.61719C14.8428 7.23242 14.6201 8.14355 14.6201 9.35059ZM25.3164 14H23.6904V4.49023H25.3164V14ZM23.5586 1.96777C23.5586 1.7041 23.6377 1.48145 23.7959 1.2998C23.96 1.11816 24.2002 1.02734 24.5166 1.02734C24.833 1.02734 25.0732 1.11816 25.2373 1.2998C25.4014 1.48145 25.4834 1.7041 25.4834 1.96777C25.4834 2.23145 25.4014 2.45117 25.2373 2.62695C25.0732 2.80273 24.833 2.89062 24.5166 2.89062C24.2002 2.89062 23.96 2.80273 23.7959 2.62695C23.6377 2.45117 23.5586 2.23145 23.5586 1.96777ZM31.7412 12.8486C32.3213 12.8486 32.8281 12.6729 33.2617 12.3213C33.6953 11.9697 33.9355 11.5303 33.9824 11.0029H35.5205C35.4912 11.5479 35.3037 12.0664 34.958 12.5586C34.6123 13.0508 34.1494 13.4434 33.5693 13.7363C32.9951 14.0293 32.3857 14.1758 31.7412 14.1758C30.4463 14.1758 29.415 13.7451 28.6475 12.8838C27.8857 12.0166 27.5049 10.833 27.5049 9.33301V9.06055C27.5049 8.13477 27.6748 7.31152 28.0146 6.59082C28.3545 5.87012 28.8408 5.31055 29.4736 4.91211C30.1123 4.51367 30.8652 4.31445 31.7324 4.31445C32.7988 4.31445 33.6836 4.63379 34.3867 5.27246C35.0957 5.91113 35.4736 6.74023 35.5205 7.75977H33.9824C33.9355 7.14453 33.7012 6.64062 33.2793 6.24805C32.8633 5.84961 32.3477 5.65039 31.7324 5.65039C30.9062 5.65039 30.2646 5.94922 29.8076 6.54688C29.3564 7.13867 29.1309 7.99707 29.1309 9.12207V9.42969C29.1309 10.5254 29.3564 11.3691 29.8076 11.9609C30.2588 12.5527 30.9033 12.8486 31.7412 12.8486ZM39.1152 14H37.4893V4.49023H39.1152V14ZM37.3574 1.96777C37.3574 1.7041 37.4365 1.48145 37.5947 1.2998C37.7588 1.11816 37.999 1.02734 38.3154 1.02734C38.6318 1.02734 38.8721 1.11816 39.0361 1.2998C39.2002 1.48145 39.2822 1.7041 39.2822 1.96777C39.2822 2.23145 39.2002 2.45117 39.0361 2.62695C38.8721 2.80273 38.6318 2.89062 38.3154 2.89062C37.999 2.89062 37.7588 2.80273 37.5947 2.62695C37.4365 2.45117 37.3574 2.23145 37.3574 1.96777ZM41.2949 9.15723C41.2949 8.22559 41.4766 7.3877 41.8398 6.64355C42.209 5.89941 42.7188 5.3252 43.3691 4.9209C44.0254 4.5166 44.7725 4.31445 45.6104 4.31445C46.9053 4.31445 47.9512 4.7627 48.748 5.65918C49.5508 6.55566 49.9521 7.74805 49.9521 9.23633V9.35059C49.9521 10.2764 49.7734 11.1084 49.416 11.8467C49.0645 12.5791 48.5576 13.1504 47.8955 13.5605C47.2393 13.9707 46.4834 14.1758 45.6279 14.1758C44.3389 14.1758 43.293 13.7275 42.4902 12.8311C41.6934 11.9346 41.2949 10.748 41.2949 9.27148V9.15723ZM42.9297 9.35059C42.9297 10.4053 43.1729 11.252 43.6592 11.8906C44.1514 12.5293 44.8076 12.8486 45.6279 12.8486C46.4541 12.8486 47.1104 12.5264 47.5967 11.8818C48.083 11.2314 48.3262 10.3232 48.3262 9.15723C48.3262 8.11426 48.0771 7.27051 47.5791 6.62598C47.0869 5.97559 46.4307 5.65039 45.6104 5.65039C44.8076 5.65039 44.1602 5.96973 43.668 6.6084C43.1758 7.24707 42.9297 8.16113 42.9297 9.35059ZM53.5293 4.49023L53.582 5.68555C54.3086 4.77148 55.2578 4.31445 56.4297 4.31445C58.4395 4.31445 59.4531 5.44824 59.4707 7.71582V14H57.8447V7.70703C57.8389 7.02148 57.6807 6.51465 57.3701 6.18652C57.0654 5.8584 56.5879 5.69434 55.9375 5.69434C55.4102 5.69434 54.9473 5.83496 54.5488 6.11621C54.1504 6.39746 53.8398 6.7666 53.6172 7.22363V14H51.9912V4.49023H53.5293ZM67.7939 14C67.7002 13.8125 67.624 13.4785 67.5654 12.998C66.8096 13.7832 65.9072 14.1758 64.8584 14.1758C63.9209 14.1758 63.1504 13.9121 62.5469 13.3848C61.9492 12.8516 61.6504 12.1777 61.6504 11.3633C61.6504 10.373 62.0254 9.60547 62.7754 9.06055C63.5312 8.50977 64.5918 8.23438 65.957 8.23438H67.5391V7.4873C67.5391 6.91895 67.3691 6.46777 67.0293 6.13379C66.6895 5.79395 66.1885 5.62402 65.5264 5.62402C64.9463 5.62402 64.46 5.77051 64.0674 6.06348C63.6748 6.35645 63.4785 6.71094 63.4785 7.12695H61.8438C61.8438 6.65234 62.0107 6.19531 62.3447 5.75586C62.6846 5.31055 63.1416 4.95898 63.7158 4.70117C64.2959 4.44336 64.9316 4.31445 65.623 4.31445C66.7188 4.31445 67.5771 4.58984 68.1982 5.14062C68.8193 5.68555 69.1416 6.43848 69.165 7.39941V11.7764C69.165 12.6494 69.2764 13.3438 69.499 13.8594V14H67.7939ZM65.0957 12.7607C65.6055 12.7607 66.0889 12.6289 66.5459 12.3652C67.0029 12.1016 67.334 11.7588 67.5391 11.3369V9.38574H66.2646C64.2725 9.38574 63.2764 9.96875 63.2764 11.1348C63.2764 11.6445 63.4463 12.043 63.7861 12.3301C64.126 12.6172 64.5625 12.7607 65.0957 12.7607ZM76.3105 5.94922C76.0645 5.9082 75.7979 5.8877 75.5107 5.8877C74.4443 5.8877 73.7207 6.3418 73.3398 7.25V14H71.7139V4.49023H73.2959L73.3223 5.58887C73.8555 4.73926 74.6113 4.31445 75.5898 4.31445C75.9062 4.31445 76.1465 4.35547 76.3105 4.4375V5.94922Z" fill="white"/>
</svg>
