<svg width="300" height="50" viewBox="0 0 300 50" fill="none" xmlns="http://www.w3.org/2000/svg">
<rect x="0.15" y="0.15" width="299.7" height="49.7" rx="4.85" fill="#224648" stroke="#9F9F9F" stroke-width="0.3"/>
<path d="M83.0547 27.3516H78.5547V32H76.2109V20.625H83.6172V22.5234H78.5547V25.4609H83.0547V27.3516ZM87.4688 32H85.125V20.625H87.4688V32ZM98.8984 32H96.5547L91.9922 24.5156V32H89.6484V20.625H91.9922L96.5625 28.125V20.625H98.8984V32ZM107.508 29.6562H103.398L102.617 32H100.125L104.359 20.625H106.531L110.789 32H108.297L107.508 29.6562ZM104.031 27.7578H106.875L105.445 23.5L104.031 27.7578ZM114.195 30.1172H119.172V32H111.852V20.625H114.195V30.1172ZM123.016 32H120.672V20.625H123.016V32ZM127.68 30.1172H133.414V32H124.75V30.625L130.375 22.5234H124.758V20.625H133.289V21.9688L127.68 30.1172ZM141.43 29.6562H137.32L136.539 32H134.047L138.281 20.625H140.453L144.711 32H142.219L141.43 29.6562ZM137.953 27.7578H140.797L139.367 23.5L137.953 27.7578ZM149.984 27.8359H148.117V32H145.773V20.625H150C151.344 20.625 152.38 20.9245 153.109 21.5234C153.839 22.1224 154.203 22.9688 154.203 24.0625C154.203 24.8385 154.034 25.487 153.695 26.0078C153.362 26.5234 152.854 26.9349 152.172 27.2422L154.633 31.8906V32H152.117L149.984 27.8359ZM148.117 25.9375H150.008C150.596 25.9375 151.052 25.7891 151.375 25.4922C151.698 25.1901 151.859 24.776 151.859 24.25C151.859 23.7135 151.706 23.2917 151.398 22.9844C151.096 22.6771 150.63 22.5234 150 22.5234H148.117V25.9375ZM168.906 28.2109C168.818 29.4349 168.365 30.3984 167.547 31.1016C166.734 31.8047 165.661 32.1562 164.328 32.1562C162.87 32.1562 161.721 31.6667 160.883 30.6875C160.049 29.7031 159.633 28.3542 159.633 26.6406V25.9453C159.633 24.8516 159.826 23.888 160.211 23.0547C160.596 22.2214 161.146 21.5833 161.859 21.1406C162.578 20.6927 163.411 20.4688 164.359 20.4688C165.672 20.4688 166.729 20.8203 167.531 21.5234C168.333 22.2266 168.797 23.2135 168.922 24.4844H166.578C166.521 23.75 166.315 23.2188 165.961 22.8906C165.612 22.5573 165.078 22.3906 164.359 22.3906C163.578 22.3906 162.992 22.6719 162.602 23.2344C162.216 23.7917 162.018 24.6589 162.008 25.8359V26.6953C162.008 27.9245 162.193 28.8229 162.562 29.3906C162.938 29.9583 163.526 30.2422 164.328 30.2422C165.052 30.2422 165.591 30.0781 165.945 29.75C166.305 29.4167 166.51 28.9036 166.562 28.2109H168.906ZM179.789 26.5703C179.789 27.6901 179.591 28.6719 179.195 29.5156C178.799 30.3594 178.232 31.0104 177.492 31.4688C176.758 31.9271 175.914 32.1562 174.961 32.1562C174.018 32.1562 173.177 31.9297 172.438 31.4766C171.698 31.0234 171.125 30.3776 170.719 29.5391C170.312 28.6953 170.107 27.7266 170.102 26.6328V26.0703C170.102 24.9505 170.302 23.9661 170.703 23.1172C171.109 22.263 171.68 21.6094 172.414 21.1562C173.154 20.6979 173.997 20.4688 174.945 20.4688C175.893 20.4688 176.734 20.6979 177.469 21.1562C178.208 21.6094 178.779 22.263 179.18 23.1172C179.586 23.9661 179.789 24.9479 179.789 26.0625V26.5703ZM177.414 26.0547C177.414 24.862 177.201 23.9557 176.773 23.3359C176.346 22.7161 175.737 22.4062 174.945 22.4062C174.159 22.4062 173.552 22.7135 173.125 23.3281C172.698 23.9375 172.482 24.8333 172.477 26.0156V26.5703C172.477 27.7318 172.69 28.6328 173.117 29.2734C173.544 29.9141 174.159 30.2344 174.961 30.2344C175.747 30.2344 176.352 29.9271 176.773 29.3125C177.195 28.6927 177.409 27.7917 177.414 26.6094V26.0547ZM184.555 20.625L187.477 28.875L190.383 20.625H193.461V32H191.109V28.8906L191.344 23.5234L188.273 32H186.664L183.602 23.5312L183.836 28.8906V32H181.492V20.625H184.555ZM197.852 27.9922V32H195.508V20.625H199.945C200.799 20.625 201.549 20.7812 202.195 21.0938C202.846 21.4062 203.346 21.8516 203.695 22.4297C204.044 23.0026 204.219 23.6562 204.219 24.3906C204.219 25.5052 203.836 26.3854 203.07 27.0312C202.31 27.6719 201.255 27.9922 199.906 27.9922H197.852ZM197.852 26.0938H199.945C200.565 26.0938 201.036 25.9479 201.359 25.6562C201.688 25.3646 201.852 24.9479 201.852 24.4062C201.852 23.849 201.688 23.3984 201.359 23.0547C201.031 22.7109 200.578 22.5339 200 22.5234H197.852V26.0938ZM210.047 27.8359H208.18V32H205.836V20.625H210.062C211.406 20.625 212.443 20.9245 213.172 21.5234C213.901 22.1224 214.266 22.9688 214.266 24.0625C214.266 24.8385 214.096 25.487 213.758 26.0078C213.424 26.5234 212.917 26.9349 212.234 27.2422L214.695 31.8906V32H212.18L210.047 27.8359ZM208.18 25.9375H210.07C210.659 25.9375 211.115 25.7891 211.438 25.4922C211.76 25.1901 211.922 24.776 211.922 24.25C211.922 23.7135 211.768 23.2917 211.461 22.9844C211.159 22.6771 210.693 22.5234 210.062 22.5234H208.18V25.9375ZM222.477 29.6562H218.367L217.586 32H215.094L219.328 20.625H221.5L225.758 32H223.266L222.477 29.6562ZM219 27.7578H221.844L220.414 23.5L219 27.7578Z" fill="white"/>
</svg>
