<svg width="100" height="40" viewBox="0 0 100 40" fill="none" xmlns="http://www.w3.org/2000/svg">
<path d="M0 20C0 8.95431 8.95431 0 20 0H100V40H20C8.9543 40 0 31.0457 0 20Z" fill="#224648"/>
<path d="M30.5371 14.5918H26.4238V26H24.7451V14.5918H20.6406V13.2031H30.5371V14.5918ZM33.9473 26H32.3213V16.4902H33.9473V26ZM32.1895 13.9678C32.1895 13.7041 32.2686 13.4814 32.4268 13.2998C32.5908 13.1182 32.8311 13.0273 33.1475 13.0273C33.4639 13.0273 33.7041 13.1182 33.8682 13.2998C34.0322 13.4814 34.1143 13.7041 34.1143 13.9678C34.1143 14.2314 34.0322 14.4512 33.8682 14.627C33.7041 14.8027 33.4639 14.8906 33.1475 14.8906C32.8311 14.8906 32.5908 14.8027 32.4268 14.627C32.2686 14.4512 32.1895 14.2314 32.1895 13.9678ZM38.7637 14.1875V16.4902H40.5391V17.7471H38.7637V23.6445C38.7637 24.0254 38.8428 24.3125 39.001 24.5059C39.1592 24.6934 39.4287 24.7871 39.8096 24.7871C39.9971 24.7871 40.2549 24.752 40.583 24.6816V26C40.1553 26.1172 39.7393 26.1758 39.335 26.1758C38.6084 26.1758 38.0605 25.9561 37.6914 25.5166C37.3223 25.0771 37.1377 24.4531 37.1377 23.6445V17.7471H35.4062V16.4902H37.1377V14.1875H38.7637ZM48.3174 25.0596C47.6846 25.8037 46.7559 26.1758 45.5312 26.1758C44.5176 26.1758 43.7441 25.8828 43.2109 25.2969C42.6836 24.7051 42.417 23.832 42.4111 22.6777V16.4902H44.0371V22.6338C44.0371 24.0752 44.623 24.7959 45.7949 24.7959C47.0371 24.7959 47.8633 24.333 48.2734 23.4072V16.4902H49.8994V26H48.3525L48.3174 25.0596ZM54.1445 26H52.5186V12.5H54.1445V26ZM56.3242 21.1572C56.3242 20.2256 56.5059 19.3877 56.8691 18.6436C57.2383 17.8994 57.748 17.3252 58.3984 16.9209C59.0547 16.5166 59.8018 16.3145 60.6396 16.3145C61.9346 16.3145 62.9805 16.7627 63.7773 17.6592C64.5801 18.5557 64.9814 19.748 64.9814 21.2363V21.3506C64.9814 22.2764 64.8027 23.1084 64.4453 23.8467C64.0938 24.5791 63.5869 25.1504 62.9248 25.5605C62.2686 25.9707 61.5127 26.1758 60.6572 26.1758C59.3682 26.1758 58.3223 25.7275 57.5195 24.8311C56.7227 23.9346 56.3242 22.748 56.3242 21.2715V21.1572ZM57.959 21.3506C57.959 22.4053 58.2021 23.252 58.6885 23.8906C59.1807 24.5293 59.8369 24.8486 60.6572 24.8486C61.4834 24.8486 62.1396 24.5264 62.626 23.8818C63.1123 23.2314 63.3555 22.3232 63.3555 21.1572C63.3555 20.1143 63.1064 19.2705 62.6084 18.626C62.1162 17.9756 61.46 17.6504 60.6396 17.6504C59.8369 17.6504 59.1895 17.9697 58.6973 18.6084C58.2051 19.2471 57.959 20.1611 57.959 21.3506Z" fill="white"/>
<path d="M75 18L83.4538 25L87.7269 21.5L92 18" stroke="white"/>
</svg>
